HIERARCHY
ROOT Hips
{
	OFFSET	0.00	0.00	0.00
	CHANNELS 6 Xposition Yposition Zposition Zrotation Xrotation Yrotation
	JOINT LeftUpLeg
	{
		OFFSET	 0.126116	-0.014019	-0.065224
		CHANNELS 3 Zrotation Xrotation Yrotation
		JOINT LeftLeg
		{
			OFFSET	 0.000000	 0.000000	 0.569914
			CHANNELS 3 Zrotation Xrotation Yrotation
			JOINT LeftFoot
			{
				OFFSET	 0.000000	 0.000000	 0.544423
				CHANNELS 3 Zrotation Xrotation Yrotation
				JOINT LeftToeBase
				{
					OFFSET	 0.000000	 0.000000	 0.207117
					CHANNELS 3 Zrotation Xrotation Yrotation
					End Site
					{
						OFFSET	 0.000000	 0.000000	 0.207117
					}
				}
			}
		}
	}
	JOINT RightUpLeg
	{
		OFFSET	-0.124023	-0.008373	-0.065224
		CHANNELS 3 Zrotation Xrotation Yrotation
		JOINT RightLeg
		{
			OFFSET	 0.000000	 0.000000	 0.570047
			CHANNELS 3 Zrotation Xrotation Yrotation
			JOINT RightFoot
			{
				OFFSET	 0.000000	 0.000000	 0.544354
				CHANNELS 3 Zrotation Xrotation Yrotation
				JOINT RightToeBase
				{
					OFFSET	 0.000000	 0.000000	 0.207540
					CHANNELS 3 Zrotation Xrotation Yrotation
					End Site
					{
						OFFSET	 0.000000	 0.000000	 0.207540
					}
				}
			}
		}
	}
	JOINT Spine
	{
		OFFSET	 0.000184	-0.007763	 0.117403
		CHANNELS 3 Zrotation Xrotation Yrotation
		JOINT Spine1
		{
			OFFSET	 0.000000	 0.000000	 0.137269
			CHANNELS 3 Zrotation Xrotation Yrotation
			JOINT Spine2
			{
				OFFSET	 0.000000	 0.000000	 0.156879
				CHANNELS 3 Zrotation Xrotation Yrotation
				JOINT LeftShoulder
				{
					OFFSET	 0.080501	-0.002496	 0.160144
					CHANNELS 3 Zrotation Xrotation Yrotation
					JOINT LeftArm
					{
						OFFSET	 0.000000	 0.000000	 0.164363
						CHANNELS 3 Zrotation Xrotation Yrotation
						JOINT LeftForeArm
						{
							OFFSET	 0.000000	 0.000000	 0.364576
							CHANNELS 3 Zrotation Xrotation Yrotation
							JOINT LeftHand
							{
								OFFSET	 0.000000	 0.000000	 0.360812
								CHANNELS 3 Zrotation Xrotation Yrotation
								JOINT LeftHandIndex1
								{
									OFFSET	 0.000000	 0.000000	 0.086006
									CHANNELS 3 Zrotation Xrotation Yrotation
									JOINT LeftHandIndex2
									{
										OFFSET	 0.000000	 0.000000	 0.047236
										CHANNELS 3 Zrotation Xrotation Yrotation
										JOINT LeftHandIndex3
										{
											OFFSET	-0.004284	-0.000551	 0.038166
											CHANNELS 3 Zrotation Xrotation Yrotation
											End Site
											{
												OFFSET	-0.004284	-0.000551	 0.038166
											}
										}
									}
								}
							}
						}
					}
				}
				JOINT Neck
				{
					OFFSET	 0.000000	 0.000000	 0.176489
					CHANNELS 3 Zrotation Xrotation Yrotation
					JOINT Head
					{
						OFFSET	 0.000000	-0.001747	 0.077940
						CHANNELS 3 Zrotation Xrotation Yrotation
						End Site
						{
							OFFSET	 0.000000	-0.001747	 0.077940
						}
					}
				}
				JOINT RightShoulder
				{
					OFFSET	-0.080363	 0.000306	 0.159706
					CHANNELS 3 Zrotation Xrotation Yrotation
					JOINT RightArm
					{
						OFFSET	 0.000000	 0.000000	 0.164196
						CHANNELS 3 Zrotation Xrotation Yrotation
						JOINT RightForeArm
						{
							OFFSET	 0.000000	 0.000000	 0.365611
							CHANNELS 3 Zrotation Xrotation Yrotation
							JOINT RightHand
							{
								OFFSET	 0.000000	 0.000000	 0.360648
								CHANNELS 3 Zrotation Xrotation Yrotation
								JOINT RightHandIndex1
								{
									OFFSET	 0.000000	 0.000000	 0.069977
									CHANNELS 3 Zrotation Xrotation Yrotation
									JOINT RightHandIndex2
									{
										OFFSET	 0.000000	 0.000000	 0.052305
										CHANNELS 3 Zrotation Xrotation Yrotation
										JOINT RightHandIndex3
										{
											OFFSET	 0.009002	-0.000782	 0.042196
											CHANNELS 3 Zrotation Xrotation Yrotation
											End Site
											{
												OFFSET	 0.009002	-0.000782	 0.042196
											}
										}
									}
								}
							}
						}
					}
				}
			}
		}
	}
}
MOTION
Frames:    12
Frame Time: 0.03333334
 0.011792	 0.019901	 1.200679	 5.060607	-1.095260	-2.862611	 5.024080	-9.802730	-173.479200	 1.006872	-38.457300	 0.406851	 61.057380	 82.418400	-65.171910	-2.369514	 31.595540	-0.069485	-11.298560	-32.848490	-176.032600	 10.092780	-47.681430	 8.066736	 10.188570	 72.895870	-5.761466	 2.358900	 33.010100	 0.103460	-10.325990	 8.610178	 1.903679	-1.666949	 2.242817	-0.866560	 1.569994	-2.262041	 0.889431	-93.964400	 58.957480	 175.333700	 8.731475	 29.107580	-45.982850	-4.501916	 0.082378	-2.339917	-5.877807	-29.657240	-10.402350	-4.870008	 19.246930	-2.791225	-3.878164	 21.515760	 2.199336	-4.806154	 5.570362	 0.145513	-0.069050	-5.082992	 0.188208	-0.515853	 2.119396	 2.642322	 89.771790	 61.657650	 179.975300	-21.361470	 55.804660	 9.907682	 1.455640	-1.727629	 14.892590	-1.640133	-15.462280	 1.387473	 6.291370	 24.624970	-0.536608	 1.915967	 44.453260	-7.020250	 0.567232	 24.096230	 3.547565
 0.010383	-0.009409	 1.199267	 5.481950	-0.687064	-2.877299	 4.504227	-8.418325	-173.788600	 1.171270	-37.774110	 0.501425	 66.108430	 83.027600	-70.326660	-2.368789	 31.715530	-0.072212	-12.677070	-34.394450	-176.620500	 9.923585	-42.991990	 7.329018	 7.960969	 72.101560	-3.844599	 2.358980	 32.998880	 0.103199	-12.735800	 8.341932	 1.799724	-1.770086	 2.366732	-0.815765	 1.495137	-2.420938	 0.888118	-94.069990	 58.974500	 175.106600	 7.691854	 27.553410	-46.472960	-6.053451	 0.207056	-3.162861	-7.830832	-32.295390	-12.130250	-4.866303	 19.341820	-2.797427	-3.872202	 21.591860	 2.193281	-4.804813	 5.586171	 0.144589	-0.047360	-5.098837	 0.219272	-0.524636	 2.090722	 2.587232	 89.730770	 61.731730	 179.877100	-21.215670	 56.758680	 8.588580	 2.438869	-1.371893	 15.646250	-0.379580	-17.932470	 1.800321	 6.280999	 23.884410	-0.546954	 2.003479	 43.728840	-7.097986	 0.727712	 23.385490	 3.467451
 0.007263	-0.069882	 1.194906	 6.136378	 0.096716	-3.038980	 3.632461	-5.248078	-174.322800	 1.426041	-35.895340	 0.629345	 77.903040	 84.097370	-82.270900	-2.366979	 32.012060	-0.078944	-14.983250	-35.671210	-177.927600	 9.423450	-31.262000	 5.324592	 4.885201	 69.262730	-1.614048	 2.360010	 32.845850	 0.099644	-17.278340	 7.766622	 1.718335	-1.976742	 2.660500	-0.723496	 1.365181	-2.711650	 0.876821	-94.264010	 58.990790	 174.690700	 5.713024	 24.726710	-47.376120	-9.257434	 0.567273	-4.759701	-12.098220	-37.102050	-15.552490	-4.855614	 19.596970	-2.810565	-3.858480	 21.766540	 2.179335	-4.799407	 5.649809	 0.140863	-0.015135	-5.144139	 0.279576	-0.558207	 2.038623	 2.520037	 89.631780	 61.876080	 179.638700	-20.639480	 58.333160	 6.857172	 4.105421	-0.431666	 15.016920	 1.893160	-22.364330	 2.653198	 6.256665	 22.308680	-0.583997	 2.166874	 42.320520	-7.242225	 1.074872	 21.817770	 3.299841
 0.003436	-0.128023	 1.186603	 6.462131	 0.761678	-3.412579	 3.150604	-1.955951	-174.683900	 1.574204	-34.026720	 0.683586	 92.061140	 84.919400	-96.493810	-2.362721	 32.677000	-0.094200	-15.802980	-37.657780	-178.850900	 9.352696	-23.380420	 4.069451	 6.421838	 69.673990	-4.216434	 2.358149	 33.120900	 0.106033	-21.769760	 7.112199	 1.857240	-2.127122	 3.084026	-0.618200	 1.281938	-2.960860	 0.843153	-94.419910	 58.975470	 174.360700	 4.234534	 22.719310	-48.193990	-12.944450	 1.121915	-6.434400	-17.100330	-41.459490	-18.929470	-4.837056	 19.994780	-2.821468	-3.838125	 22.024040	 2.158658	-4.784102	 5.829841	 0.130282	 0.007173	-5.225389	 0.329581	-0.597774	 1.973984	 2.498675	 89.504890	 62.003970	 179.330500	-19.458810	 59.393360	 5.421215	 5.512960	 0.555830	 13.900100	 3.860134	-26.451750	 3.273769	 6.219927	 20.278040	-0.659612	 2.380088	 40.366340	-7.428522	 1.520170	 19.747130	 3.096701
-0.001456	-0.185894	 1.174854	 6.650742	 1.035338	-3.723257	 2.705929	 1.877973	-175.175200	 1.709345	-31.993830	 0.718872	 102.563500	 85.658640	-107.012400	-2.351446	 34.282350	-0.131736	-15.162960	-41.914940	-179.217800	 9.648223	-22.027200	 3.940060	 14.453300	 74.466070	-13.201960	 2.345936	 34.785200	 0.145366	-26.057490	 6.759068	 2.021682	-2.245641	 3.542338	-0.552675	 1.270108	-3.242867	 0.829339	-94.504910	 58.938450	 174.185700	 2.867059	 21.589280	-48.893590	-16.176260	 1.822795	-8.024113	-22.368320	-44.317160	-22.854900	-4.830217	 20.347610	-2.886733	-3.811556	 22.357700	 2.131673	-4.754257	 6.179495	 0.109574	 0.053077	-5.325356	 0.349045	-0.563090	 1.906051	 2.375363	 89.407390	 62.028560	 179.094100	-17.759170	 60.108210	 3.280402	 6.788341	 1.492056	 13.667220	 5.726614	-29.848660	 3.721086	 6.181112	 17.970070	-0.712400	 2.669608	 37.481720	-7.677511	 1.997270	 17.456270	 2.894605
-0.006386	-0.239540	 1.165669	 6.901420	 1.050395	-3.805051	 2.159811	 5.944069	-175.826600	 1.931685	-28.932510	 0.764017	 87.535460	 86.574630	-92.006270	-2.328703	 37.013050	-0.198268	-15.067020	-44.174440	-179.767800	 10.159920	-21.867420	 4.109348	 17.415420	 74.932540	-16.903000	 2.335764	 36.025360	 0.175474	-29.732380	 6.787595	 2.059649	-2.385220	 3.370487	-0.623213	 1.280416	-3.336938	 0.861518	-94.540860	 58.964820	 174.104900	 1.879261	 21.212750	-48.911000	-18.498550	 2.525631	-9.310163	-27.125300	-45.821190	-26.971140	-4.850450	 20.519000	-3.054936	-3.785945	 22.676440	 2.105665	-4.717444	 6.608417	 0.083911	 0.118986	-5.411712	 0.338923	-0.461949	 1.901280	 2.165762	 89.357900	 61.909560	 178.979000	-16.151470	 60.247680	 2.148431	 8.033664	 2.377311	 11.756430	 7.475021	-32.086250	 4.212083	 6.167338	 15.922520	-0.643910	 2.890855	 35.080090	-7.864258	 2.408355	 15.424990	 2.734048
-0.012841	-0.304367	 1.158173	 7.150620	 0.937138	-3.389795	 1.621374	 10.504770	-177.125700	 2.182413	-26.055820	 0.803911	 38.785610	 86.320380	-43.090220	-2.266924	 42.516090	-0.345266	-14.521580	-43.346310	 179.446300	 9.283040	-21.337470	 3.686284	 11.724730	 72.276660	-10.092580	 2.339095	 35.631440	 0.165834	-33.676780	 6.767446	 1.739428	-2.657012	 2.932012	-0.977122	 1.287168	-3.158685	 0.968212	-94.507900	 59.232760	 174.130500	 1.074631	 21.246490	-48.213740	-20.989050	 3.382306	-10.617100	-31.773800	-46.103550	-30.867820	-4.880150	 20.621580	-3.258830	-3.762918	 22.960870	 2.082275	-4.668308	 7.176946	 0.049427	 0.194499	-5.480518	 0.272190	-0.283894	 1.971677	 2.068294	 89.355610	 61.619410	 178.984200	-14.700940	 60.079710	 0.823529	 9.509966	 3.279730	 10.700320	 9.188452	-33.407420	 4.772331	 6.201636	 13.698170	-0.350325	 3.038661	 33.372030	-7.987082	 2.832695	 13.275610	 2.582110
-0.020412	-0.373933	 1.152556	 7.553792	 0.502460	-2.453615	 1.697334	 14.123390	-179.302300	 1.402062	-26.165030	 0.462760	 7.121715	 83.255320	-9.870601	-2.116723	 50.895930	-0.618648	-12.634160	-41.005110	 178.928800	 6.386215	-23.283390	 2.836339	 2.295210	 68.905780	 3.743625	 2.339783	 35.548560	 0.163813	-37.356080	 6.894351	 0.875114	-3.027424	 2.456857	-1.257904	 1.256450	-2.757545	 0.963410	-94.439080	 59.328350	 174.262400	 0.747791	 21.311740	-47.113640	-23.533590	 4.299495	-11.801950	-34.009160	-44.584820	-31.970870	-4.895040	 20.758240	-3.390163	-3.749677	 23.123340	 2.068837	-4.612957	 7.811546	 0.010291	 0.283925	-5.464657	 0.246845	-0.088075	 2.182406	 2.276641	 89.329890	 61.404440	 178.931300	-13.541890	 59.838900	-0.900351	 10.993840	 4.191233	 11.889790	 10.657530	-33.203920	 5.438022	 6.289183	 11.489550	 0.125022	 3.169986	 31.780490	-8.094760	 3.200646	 11.371790	 2.462186
-0.028145	-0.444800	 1.150437	 8.699784	-0.264783	-1.531090	 2.194191	 15.255550	 178.053500	-0.231211	-30.203270	-0.293762	-2.110596	 75.996630	 2.731603	-1.847662	 59.410280	-1.006485	-11.017340	-38.668580	 178.780300	 6.605330	-26.543930	 3.305087	-7.870055	 63.164020	 16.977130	 2.335188	 36.092170	 0.177110	-40.543930	 7.224418	 0.051146	-3.311494	 2.311134	-1.400680	 1.127095	-2.421014	 0.878584	-94.370860	 59.065210	 174.451200	 1.051599	 21.246110	-46.247240	-25.893220	 5.238570	-12.851650	-33.597130	-41.099570	-30.291220	-4.886685	 20.979490	-3.415689	-3.725837	 23.414160	 2.044641	-4.556371	 8.454238	-0.030031	 0.381367	-5.397571	 0.285954	 0.051727	 2.552561	 2.460764	 89.181170	 61.349980	 178.582600	-12.530530	 59.539590	-1.721154	 12.956080	 5.130100	 12.941690	 12.720990	-31.234260	 6.692309	 6.349178	 9.572513	 0.412757	 3.330831	 29.731060	-8.224608	 3.481667	 9.894633	 2.378231
-0.037658	-0.516746	 1.152214	 10.051590	-0.827138	-0.415831	 2.489683	 12.971770	 175.030000	 1.222858	-39.151600	 0.549407	-4.528896	 64.566110	 8.123095	-1.035877	 70.854510	-1.970775	-13.453880	-38.127410	 176.979100	 8.369424	-33.170720	 5.023662	-7.846000	 60.475760	 16.839760	 2.349618	 34.305870	 0.133906	-42.615460	 7.307615	-0.698856	-3.463007	 2.246805	-1.749507	 0.918163	-2.104507	 0.907819	-94.242620	 59.351720	 174.681500	 2.145578	 21.880580	-45.438200	-27.301450	 6.173462	-13.776360	-31.890930	-35.921020	-28.082920	-4.820372	 21.266070	-3.117821	-3.676420	 24.009880	 1.994487	-4.509870	 8.977689	-0.063403	 0.398203	-5.337630	 0.239944	 0.080262	 2.956800	 2.419437	 89.028010	 60.853930	 178.251500	-11.666790	 58.968730	-2.273936	 15.732910	 6.079461	 13.868160	 15.325110	-27.722230	 7.673444	 6.370433	 8.620051	 0.508168	 3.390727	 28.938590	-8.272352	 3.646805	 9.017926	 2.332055
-0.047080	-0.585927	 1.157061	 10.128610	-1.149329	 0.695870	 8.439983	 8.411726	 169.312900	 1.911307	-48.817890	 1.173146	-3.468904	 51.482480	 14.946430	-1.661550	 63.207840	-1.243966	-15.537500	-36.639470	 175.102800	 7.314698	-38.314560	 5.025311	-5.023182	 61.615810	 14.998090	 2.367935	 31.600170	 0.071090	-42.841140	 7.414560	-1.403791	-3.351052	 1.773032	-1.916328	 0.865645	-1.735265	 0.784490	-94.094830	 59.876780	 174.921800	 3.507754	 23.261620	-44.452910	-27.629970	 7.033067	-14.544510	-29.548520	-30.575730	-25.424010	-4.765048	 21.476550	-2.852994	-3.621898	 24.656050	 1.939183	-4.469341	 9.430475	-0.092659	 0.340890	-5.374862	 0.175249	 0.034349	 3.185272	 2.422225	 89.002590	 60.266660	 178.227400	-11.543320	 58.220990	-1.860324	 18.501790	 6.961313	 14.634950	 17.569100	-23.780840	 7.911876	 6.399826	 9.048602	 0.622479	 3.372147	 29.186150	-8.257575	 3.663092	 8.931150	 2.327627
-0.053450	-0.647038	 1.163171	 8.728321	-1.724461	 1.546551	 14.008200	 3.596040	 165.165300	-0.358058	-56.666830	-0.593852	 3.025869	 46.038950	 11.267010	-2.373819	 30.853040	-0.052770	-15.133900	-34.125390	 173.963500	 6.450419	-40.963880	 4.739919	-4.003504	 64.102440	 14.626730	 2.374333	 30.483760	 0.045993	-41.385470	 7.903814	-2.023495	-3.010315	 1.362761	-1.693326	 1.039700	-1.420090	 0.442023	-94.038110	 59.741790	 175.066000	 4.457709	 24.447610	-43.500850	-28.004520	 7.753039	-15.128090	-27.559150	-25.989540	-21.955920	-4.731394	 21.915320	-2.788136	-3.572636	 25.230130	 1.889231	-4.418553	 9.993301	-0.129536	 0.261365	-5.409071	 0.173552	-0.062045	 3.200655	 2.571729	 89.110140	 60.268140	 178.471800	-12.232460	 57.528680	 0.295912	 20.632600	 7.698306	 15.220300	 18.992160	-19.518220	 7.472716	 6.406878	 10.335160	 0.645347	 3.272358	 30.489150	-8.177677	 3.542618	 9.571769	 2.360913
